<svg xmlns="http://www.w3.org/2000/svg" xmlns:xlink="http://www.w3.org/1999/xlink" width="43" height="23" viewBox="0 0 43 23"><defs><path id="zz96a" d="M1832 42a2 2 0 0 1 2-2h39a2 2 0 0 1 2 2v.59a2 2 0 0 1-2 2h-39a2 2 0 0 1-2-2z"/><path id="zz96b" d="M1832 51.19a2 2 0 0 1 2-2h39a2 2 0 0 1 2 2v.63a2 2 0 0 1-2 2h-39a2 2 0 0 1-2-2z"/><path id="zz96c" d="M1832 60.41a2 2 0 0 1 2-2h39a2 2 0 0 1 2 2V61a2 2 0 0 1-2 2h-39a2 2 0 0 1-2-2z"/></defs><g><g transform="translate(-1832 -40)"><g><use fill="#f7bd00" xlink:href="#zz96a"/></g><g><use fill="#f7bd00" xlink:href="#zz96b"/></g><g><use fill="#f7bd00" xlink:href="#zz96c"/></g></g></g></svg>